<svg width="123" height="123" viewBox="0 0 123 123" fill="none" xmlns="http://www.w3.org/2000/svg">
<rect x="0.8125" y="0.484375" width="10" height="10" rx="5" fill="#81818B" fill-opacity="0.2"/>
<rect x="16.8125" y="0.484375" width="10" height="10" rx="5" fill="#81818B" fill-opacity="0.2"/>
<rect x="32.8125" y="0.484375" width="10" height="10" rx="5" fill="#81818B" fill-opacity="0.2"/>
<rect x="48.8125" y="0.484375" width="10" height="10" rx="5" fill="#81818B" fill-opacity="0.2"/>
<rect x="64.8125" y="0.484375" width="10" height="10" rx="5" fill="#81818B" fill-opacity="0.2"/>
<rect x="80.8125" y="0.484375" width="10" height="10" rx="5" fill="#81818B" fill-opacity="0.2"/>
<rect x="96.8125" y="0.484375" width="10" height="10" rx="5" fill="#81818B" fill-opacity="0.2"/>
<rect x="112.812" y="0.484375" width="10" height="10" rx="5" fill="#81818B" fill-opacity="0.2"/>
<rect x="0.8125" y="16.4844" width="10" height="10" rx="5" fill="#81818B" fill-opacity="0.2"/>
<rect x="16.8125" y="16.4844" width="10" height="10" rx="5" fill="#81818B" fill-opacity="0.2"/>
<rect x="32.8125" y="16.4844" width="10" height="10" rx="5" fill="#81818B" fill-opacity="0.2"/>
<rect x="48.8125" y="16.4844" width="10" height="10" rx="5" fill="#81818B" fill-opacity="0.2"/>
<rect x="64.8125" y="16.4844" width="10" height="10" rx="5" fill="#81818B" fill-opacity="0.2"/>
<rect x="80.8125" y="16.4844" width="10" height="10" rx="5" fill="#81818B" fill-opacity="0.2"/>
<rect x="96.8125" y="16.4844" width="10" height="10" rx="5" fill="#81818B" fill-opacity="0.2"/>
<rect x="112.812" y="16.4844" width="10" height="10" rx="5" fill="#81818B" fill-opacity="0.2"/>
<rect x="0.8125" y="32.4844" width="10" height="10" rx="5" fill="#81818B" fill-opacity="0.2"/>
<rect x="16.8125" y="32.4844" width="10" height="10" rx="5" fill="#81818B" fill-opacity="0.2"/>
<rect x="32.8125" y="32.4844" width="10" height="10" rx="5" fill="#81818B" fill-opacity="0.2"/>
<rect x="48.8125" y="32.4844" width="10" height="10" rx="5" fill="#81818B" fill-opacity="0.2"/>
<rect x="64.8125" y="32.4844" width="10" height="10" rx="5" fill="#81818B" fill-opacity="0.2"/>
<rect x="80.8125" y="32.4844" width="10" height="10" rx="5" fill="#81818B" fill-opacity="0.2"/>
<rect x="96.8125" y="32.4844" width="10" height="10" rx="5" fill="#81818B" fill-opacity="0.2"/>
<rect x="112.812" y="32.4844" width="10" height="10" rx="5" fill="#81818B" fill-opacity="0.2"/>
<rect x="0.8125" y="48.4844" width="10" height="10" rx="5" fill="#81818B" fill-opacity="0.2"/>
<rect x="16.8125" y="48.4844" width="10" height="10" rx="5" fill="#81818B" fill-opacity="0.2"/>
<rect x="32.8125" y="48.4844" width="10" height="10" rx="5" fill="#81818B" fill-opacity="0.2"/>
<rect x="48.8125" y="48.4844" width="10" height="10" rx="5" fill="#81818B" fill-opacity="0.2"/>
<rect x="64.8125" y="48.4844" width="10" height="10" rx="5" fill="#81818B" fill-opacity="0.2"/>
<rect x="80.8125" y="48.4844" width="10" height="10" rx="5" fill="#81818B" fill-opacity="0.2"/>
<rect x="96.8125" y="48.4844" width="10" height="10" rx="5" fill="#81818B" fill-opacity="0.2"/>
<rect x="112.812" y="48.4844" width="10" height="10" rx="5" fill="#81818B" fill-opacity="0.2"/>
<rect x="0.8125" y="64.4844" width="10" height="10" rx="5" fill="#81818B" fill-opacity="0.2"/>
<rect x="16.8125" y="64.4844" width="10" height="10" rx="5" fill="#81818B" fill-opacity="0.2"/>
<rect x="32.8125" y="64.4844" width="10" height="10" rx="5" fill="#81818B" fill-opacity="0.2"/>
<rect x="48.8125" y="64.4844" width="10" height="10" rx="5" fill="#81818B" fill-opacity="0.2"/>
<rect x="64.8125" y="64.4844" width="10" height="10" rx="5" fill="#81818B" fill-opacity="0.2"/>
<rect x="80.8125" y="64.4844" width="10" height="10" rx="5" fill="#81818B" fill-opacity="0.2"/>
<rect x="96.8125" y="64.4844" width="10" height="10" rx="5" fill="#81818B" fill-opacity="0.2"/>
<rect x="112.812" y="64.4844" width="10" height="10" rx="5" fill="#81818B" fill-opacity="0.2"/>
<rect x="0.8125" y="80.4844" width="10" height="10" rx="5" fill="#81818B" fill-opacity="0.2"/>
<rect x="16.8125" y="80.4844" width="10" height="10" rx="5" fill="#81818B" fill-opacity="0.2"/>
<rect x="32.8125" y="80.4844" width="10" height="10" rx="5" fill="#81818B" fill-opacity="0.2"/>
<rect x="48.8125" y="80.4844" width="10" height="10" rx="5" fill="#81818B" fill-opacity="0.2"/>
<rect x="64.8125" y="80.4844" width="10" height="10" rx="5" fill="#81818B" fill-opacity="0.2"/>
<rect x="80.8125" y="80.4844" width="10" height="10" rx="5" fill="#81818B" fill-opacity="0.2"/>
<rect x="96.8125" y="80.4844" width="10" height="10" rx="5" fill="#81818B" fill-opacity="0.2"/>
<rect x="112.812" y="80.4844" width="10" height="10" rx="5" fill="#81818B" fill-opacity="0.2"/>
<rect x="0.8125" y="96.4844" width="10" height="10" rx="5" fill="#81818B" fill-opacity="0.2"/>
<rect x="16.8125" y="96.4844" width="10" height="10" rx="5" fill="#81818B" fill-opacity="0.2"/>
<rect x="32.8125" y="96.4844" width="10" height="10" rx="5" fill="#81818B" fill-opacity="0.2"/>
<rect x="48.8125" y="96.4844" width="10" height="10" rx="5" fill="#81818B" fill-opacity="0.2"/>
<rect x="64.8125" y="96.4844" width="10" height="10" rx="5" fill="#81818B" fill-opacity="0.2"/>
<rect x="80.8125" y="96.4844" width="10" height="10" rx="5" fill="#81818B" fill-opacity="0.2"/>
<rect x="96.8125" y="96.4844" width="10" height="10" rx="5" fill="#81818B" fill-opacity="0.2"/>
<rect x="112.812" y="96.4844" width="10" height="10" rx="5" fill="#81818B" fill-opacity="0.2"/>
<rect x="0.8125" y="112.484" width="10" height="10" rx="5" fill="#81818B" fill-opacity="0.2"/>
<rect x="16.8125" y="112.484" width="10" height="10" rx="5" fill="#81818B" fill-opacity="0.2"/>
<rect x="32.8125" y="112.484" width="10" height="10" rx="5" fill="#81818B" fill-opacity="0.2"/>
<rect x="48.8125" y="112.484" width="10" height="10" rx="5" fill="#81818B" fill-opacity="0.2"/>
<rect x="64.8125" y="112.484" width="10" height="10" rx="5" fill="#81818B" fill-opacity="0.2"/>
<rect x="80.8125" y="112.484" width="10" height="10" rx="5" fill="#81818B" fill-opacity="0.2"/>
<rect x="96.8125" y="112.484" width="10" height="10" rx="5" fill="#81818B" fill-opacity="0.2"/>
<rect x="112.812" y="112.484" width="10" height="10" rx="5" fill="#81818B" fill-opacity="0.2"/>
</svg>
